<?xml version="1.0" encoding="UTF-8" standalone="no"?>
<svg
   xmlns:dc="http://purl.org/dc/elements/1.1/"
   xmlns:cc="http://creativecommons.org/ns#"
   xmlns:rdf="http://www.w3.org/1999/02/22-rdf-syntax-ns#"
   xmlns:svg="http://www.w3.org/2000/svg"
   xmlns="http://www.w3.org/2000/svg"
   xmlns:sodipodi="http://sodipodi.sourceforge.net/DTD/sodipodi-0.dtd"
   xmlns:inkscape="http://www.inkscape.org/namespaces/inkscape"
   id="svg8"
   sodipodi:docname="minibrand.svg"
   version="1.1"
   viewBox="0 0 37.580075 45.801033"
   height="45.801033mm"
   width="37.580074mm"
   inkscape:version="1.0beta2 (2b71d25, 2019-12-03)">
  <defs
     id="defs2">
    <rect
       x="34.190186"
       y="44.352936"
       width="74.083336"
       height="73.025002"
       id="rect1030" />
    <rect
       x="23.501825"
       y="140.97446"
       width="143.53419"
       height="74.373657"
       id="rect153" />
    <rect
       x="47.315788"
       y="126.004"
       width="45.258579"
       height="25.972254"
       id="rect272" />
    <rect
       x="28.726191"
       y="67.279762"
       width="153.45833"
       height="83.154762"
       id="rect12" />
  </defs>
  <sodipodi:namedview
     id="base"
     pagecolor="#ffffff"
     bordercolor="#666666"
     borderopacity="1.0"
     inkscape:pageopacity="0.0"
     inkscape:pageshadow="2"
     inkscape:zoom="1"
     inkscape:cx="80.838506"
     inkscape:cy="82.183449"
     inkscape:document-units="mm"
     inkscape:current-layer="text151"
     inkscape:document-rotation="0"
     showgrid="false"
     showguides="true"
     inkscape:guide-bbox="true"
     inkscape:window-width="1440"
     inkscape:window-height="855"
     inkscape:window-x="314"
     inkscape:window-y="1103"
     inkscape:window-maximized="0"
     fit-margin-top="0"
     fit-margin-left="0"
     fit-margin-right="0"
     fit-margin-bottom="0" />
  <metadata
     id="metadata5">
    <rdf:RDF>
      <cc:Work
         rdf:about="">
        <dc:format>image/svg+xml</dc:format>
        <dc:type
           rdf:resource="http://purl.org/dc/dcmitype/StillImage" />
        <dc:title></dc:title>
      </cc:Work>
    </rdf:RDF>
  </metadata>
  <g
     inkscape:label="Layer 1"
     inkscape:groupmode="layer"
     id="layer1"
     transform="translate(-82.23447,-2.3723794)">
    <path
       style="fill:#1779ba;fill-opacity:1;stroke:#1779ba;stroke-width:0.97719;stroke-miterlimit:4;stroke-dasharray:none;stroke-opacity:1"
       d="M 99.543914,47.249696 C 91.200869,44.46862 85.029674,37.747091 83.233578,29.484875 82.788335,27.436721 82.518714,11.783664 82.917176,11.116563 c 0.201101,-0.336663 0.434199,-0.400914 1.454507,-0.400914 5.245196,0 11.139689,-3.9347427 14.858265,-6.6246357 0.935252,-0.6765193 1.748172,-1.2300389 1.806502,-1.2300389 0.0584,0 0.71392,0.4479929 1.45688,0.9955357 3.76213,2.7726346 8.51336,6.5038209 14.04488,6.7929809 2.07563,0.1085 2.42036,0.174007 2.61297,0.496484 0.37151,0.621944 0.0965,16.360917 -0.31911,18.262289 -1.63641,7.486807 -6.69885,13.633116 -13.89132,16.865437 -1.42996,0.642643 -3.67866,1.434565 -4.00139,1.409174 -0.0692,-0.0049 -0.69703,-0.200363 -1.395446,-0.433179 z m 4.287786,-2.013331 c 7.07349,-3.041041 12.09279,-9.073205 13.47989,-16.200055 0.25915,-1.331493 0.32761,-3.277033 0.32761,-9.310271 v -7.627026 l -1.95768,-0.124777 C 110.6567,11.653964 105.4584,7.7900944 102.09024,5.3688625 L 101.04648,4.6185373 99.62171,5.5911391 C 96.233929,7.9037408 91.193865,11.668477 86.313085,11.978893 l -1.901489,0.120928 v 7.626626 c 0,8.375734 0.119196,9.559591 1.273232,12.645858 2.310538,6.179122 7.150502,10.890798 13.729701,13.365778 1.488331,0.559883 2.112911,0.488935 4.417171,-0.501718 z"
       id="path116"
       inkscape:connector-curvature="0"
       sodipodi:nodetypes="cscssscccsccccsscscccccsscc" />
    <g
       aria-label="Argos"
       transform="translate(0.85349462,-6.187836)"
       id="text10"
       style="font-style:normal;font-weight:normal;font-size:10.5833px;line-height:1.25;font-family:sans-serif;white-space:pre;shape-inside:url(#rect12);fill:#000000;fill-opacity:1;stroke:none" />
    <path
       id="path244"
       d="m 104.90766,21.001959 -5.356684,4.58334 -2.499781,-2.13889 -1.785567,1.527783 4.285348,3.666669 7.142244,-6.111119 z"
       inkscape:connector-curvature="0"
       style="fill:#008000;stroke-width:0.33033" />
    <text
       xml:space="preserve"
       id="text270"
       style="font-style:normal;font-weight:normal;font-size:10.58329999999999949px;line-height:1.25;font-family:sans-serif;white-space:pre;shape-inside:url(#rect272);fill:#000000;fill-opacity:1;stroke:none;" />
    <g
       aria-label="argos"
       id="text278"
       style="font-style:normal;font-weight:normal;font-size:10.5833px;line-height:1.25;font-family:sans-serif;fill:#000000;fill-opacity:1;stroke:none;stroke-width:0.264583"
       transform="matrix(0.9713614,0,0,0.9713614,-17.427368,-68.069321)">
      <g
         aria-label="argos"
         id="text151"
         style="font-style:normal;font-weight:normal;font-size:52.2977px;line-height:1.25;font-family:sans-serif;white-space:pre;shape-inside:url(#rect153);fill:#000000;fill-opacity:1;stroke:none"
         transform="translate(8.9435168,-79.856979)">
        <path
           d="m 113.08382,160.49893 q 5.80505,0 8.99521,3.87003 3.24245,3.87003 3.24245,10.51183 0,4.28841 -1.46433,7.58317 -1.46434,3.24246 -4.23611,5.07288 -2.77178,1.77812 -6.58951,1.77812 -5.80505,0 -9.04751,-3.87003 -3.24245,-3.87003 -3.24245,-10.51184 0,-4.28841 1.46433,-7.53087 1.46434,-3.29475 4.23612,-5.07287 2.77177,-1.83042 6.6418,-1.83042 z m 0,3.87003 q -7.16478,0 -7.16478,10.56413 0,10.51184 7.11249,10.51184 7.11248,0 7.11248,-10.56414 0,-10.51183 -7.06019,-10.51183 z"
           style="font-style:normal;font-variant:normal;font-weight:normal;font-stretch:normal;font-family:'Fira Sans';-inkscape-font-specification:'Fira Sans'"
           id="path163"
           inkscape:connector-curvature="0" />
      </g>
    </g>
  </g>
</svg>
